<svg width="30" height="18" viewBox="0 0 30 18" fill="none" xmlns="http://www.w3.org/2000/svg">
<g clip-path="url(#clip0_4817_2)">
<rect width="30" height="18" fill="white"/>
<path d="M0 0H30V18H0V0Z" fill="#009B3A"/>
<path d="M5 9.38504L14.9992 15.7701L24.9984 9.38504L14.9992 3L5 9.38504Z" fill="#FEDF00"/>
<path d="M14.9978 13.6016C17.3265 13.6016 19.2143 11.7138 19.2143 9.38506C19.2143 7.05633 17.3265 5.16852 14.9978 5.16852C12.6691 5.16852 10.7812 7.05633 10.7812 9.38506C10.7812 11.7138 12.6691 13.6016 14.9978 13.6016Z" fill="#002776"/>
<mask id="mask0_4817_2" style="mask-type:luminance" maskUnits="userSpaceOnUse" x="10" y="5" width="10" height="9">
<path d="M14.9997 13.6016C17.3285 13.6016 19.2163 11.7138 19.2163 9.38509C19.2163 7.05636 17.3285 5.16855 14.9997 5.16855C12.671 5.16855 10.7832 7.05636 10.7832 9.38509C10.7832 11.7138 12.671 13.6016 14.9997 13.6016Z" fill="white"/>
</mask>
<g mask="url(#mask0_4817_2)">
<path d="M2.34961 17.8181C2.34961 15.1023 3.42848 12.4976 5.34888 10.5772C7.26929 8.65684 9.87391 7.57797 12.5898 7.57797C15.3056 7.57797 17.9103 8.65684 19.8307 10.5772C21.7511 12.4976 22.8299 15.1023 22.8299 17.8181H22.2276C22.2276 15.262 21.2122 12.8106 19.4047 11.0032C17.5973 9.19574 15.1459 8.18033 12.5898 8.18033C10.0337 8.18033 7.58226 9.19574 5.77482 11.0032C3.96738 12.8106 2.95197 15.262 2.95197 17.8181H2.34961Z" fill="white"/>
</g>
<path fill-rule="evenodd" clip-rule="evenodd" d="M11.4021 8.1525C11.4497 8.14666 11.4927 8.12006 11.5218 8.07856C11.5508 8.03705 11.5635 7.98404 11.557 7.93119C11.5505 7.87833 11.5254 7.82996 11.4872 7.79672C11.449 7.76347 11.4008 7.74808 11.3532 7.75392C11.3056 7.75976 11.2626 7.78636 11.2335 7.82786C11.2045 7.86936 11.1918 7.92238 11.1983 7.97523C11.2048 8.02809 11.2299 8.07646 11.2681 8.1097C11.3064 8.14294 11.3546 8.15834 11.4021 8.1525M11.393 8.07848C11.421 8.07505 11.4462 8.05856 11.463 8.03264C11.4799 8.00672 11.4871 7.9735 11.483 7.94027C11.4789 7.90705 11.4639 7.87655 11.4413 7.85548C11.4186 7.83442 11.3902 7.82451 11.3623 7.82794C11.3343 7.83137 11.3092 7.84786 11.2923 7.87378C11.2754 7.89969 11.2682 7.93292 11.2723 7.96614C11.2764 7.99937 11.2914 8.02987 11.314 8.05093C11.3367 8.072 11.3651 8.08191 11.393 8.07848" fill="#009B3A"/>
<path fill-rule="evenodd" clip-rule="evenodd" d="M11.7292 8.11626L11.8036 8.11106L11.7932 7.96227L11.9534 7.95106C11.9868 7.94873 12.0179 7.93323 12.0399 7.90796C12.0618 7.8827 12.0728 7.84975 12.0705 7.81636C12.0682 7.78297 12.0527 7.75187 12.0274 7.72991C12.0021 7.70795 11.9692 7.69693 11.9358 7.69926L11.7069 7.71527L11.7292 8.11626ZM11.788 7.88787L11.9425 7.87707C11.9561 7.87611 11.9689 7.86977 11.9779 7.85944C11.9868 7.8491 11.9913 7.83562 11.9904 7.82196C11.9894 7.8083 11.9831 7.79558 11.9728 7.7866C11.9624 7.77761 11.9489 7.7731 11.9353 7.77406L11.7808 7.78486L11.788 7.88787Z" fill="#009B3A"/>
<path d="M12.0707 8.09244C12.0667 8.03521 12.0579 7.90931 11.972 7.91531L11.8633 7.92291C11.9892 7.91411 11.998 8.04001 12.002 8.09724" fill="#009B3A"/>
<path fill-rule="evenodd" clip-rule="evenodd" d="M12.2375 8.08453L12.4268 8.08122C12.4494 8.08083 12.4717 8.07599 12.4924 8.06698C12.5131 8.05796 12.5319 8.04496 12.5476 8.0287C12.5633 8.01244 12.5756 7.99325 12.5839 7.97222C12.5922 7.95119 12.5962 7.92874 12.5958 7.90614L12.5948 7.84878C12.5944 7.82619 12.5896 7.80389 12.5806 7.78316C12.5716 7.76243 12.5586 7.74369 12.5423 7.72799C12.5261 7.71229 12.5069 7.69994 12.4858 7.69166C12.4648 7.68338 12.4424 7.67932 12.4198 7.67971L12.2305 7.68301L12.2375 8.08453ZM12.3107 8.00866L12.4197 8.00676C12.4486 8.00625 12.4761 7.99429 12.4962 7.97349C12.5163 7.9527 12.5273 7.92478 12.5268 7.89587L12.5262 7.86146C12.5257 7.83255 12.5137 7.80503 12.4929 7.78495C12.4721 7.76487 12.4442 7.75387 12.4153 7.75438L12.3063 7.75628L12.3107 8.00866Z" fill="#009B3A"/>
<path d="M12.7497 8.07952L13.1109 8.09214L13.1135 8.0176L12.8211 8.00739L12.8247 7.90419L13.054 7.9122L13.0564 7.8434L12.8271 7.83539L12.8299 7.75513L13.1051 7.76474L13.1077 7.6902L12.7637 7.67819L12.7497 8.07952Z" fill="#009B3A"/>
<path d="M13.258 8.10122L13.3265 8.10722L13.3505 7.8329L13.4066 8.11422L13.4694 8.11972L13.5734 7.8524L13.5494 8.12672L13.618 8.13272L13.653 7.73267L13.553 7.72392L13.449 7.99124L13.393 7.70992L13.293 7.70117L13.258 8.10122Z" fill="#009B3A"/>
<path d="M14.0892 8.19506L14.386 8.24607L14.3977 8.17822L14.1687 8.13888L14.1842 8.04841L14.3708 8.08047L14.3825 8.01263L14.1959 7.98057L14.2066 7.91837L14.4285 7.9565L14.4402 7.88866L14.1504 7.83887L14.0892 8.19506Z" fill="#009B3A"/>
<path fill-rule="evenodd" clip-rule="evenodd" d="M14.8526 8.34484L14.9248 8.36351L14.9621 8.21911L15.1176 8.25932C15.15 8.26771 15.1845 8.26287 15.2133 8.24588C15.2421 8.22889 15.263 8.20114 15.2714 8.16874C15.2798 8.13633 15.275 8.10192 15.258 8.07308C15.241 8.04424 15.2132 8.02333 15.1808 8.01495L14.9587 7.95749L14.8526 8.34484ZM14.9808 8.1469L15.1308 8.18569C15.144 8.18911 15.1581 8.18714 15.1699 8.18019C15.1817 8.17324 15.1902 8.16188 15.1937 8.14863C15.1971 8.13537 15.1951 8.12129 15.1882 8.10949C15.1812 8.0977 15.1699 8.08914 15.1566 8.08571L15.0067 8.04693L14.9808 8.1469Z" fill="#009B3A"/>
<path fill-rule="evenodd" clip-rule="evenodd" d="M15.346 8.47631L15.4172 8.49874L15.462 8.35648L15.6152 8.40479C15.6471 8.41485 15.6818 8.41182 15.7114 8.39637C15.7411 8.38091 15.7635 8.35429 15.7735 8.32237C15.7836 8.29045 15.7806 8.25583 15.7651 8.22614C15.7497 8.19645 15.723 8.17412 15.6911 8.16405L15.4723 8.09505L15.346 8.47631ZM15.4844 8.28536L15.6322 8.33194C15.6452 8.33605 15.6594 8.33481 15.6715 8.32849C15.6837 8.32217 15.6928 8.31128 15.6969 8.29822C15.7011 8.28516 15.6998 8.271 15.6935 8.25885C15.6872 8.24671 15.6763 8.23757 15.6632 8.23345L15.5155 8.18688L15.4844 8.28536Z" fill="#009B3A"/>
<path d="M15.6718 8.57895C15.6891 8.52424 15.727 8.40387 15.645 8.37799L15.541 8.34521C15.6614 8.38317 15.6234 8.50353 15.6062 8.55825" fill="#009B3A"/>
<path fill-rule="evenodd" clip-rule="evenodd" d="M15.9993 8.6966C16.0442 8.71339 16.0947 8.70967 16.1396 8.68627C16.1845 8.66286 16.2203 8.62169 16.2389 8.57181C16.2576 8.52193 16.2576 8.46743 16.2391 8.42029C16.2205 8.37315 16.1849 8.33724 16.14 8.32046C16.0951 8.30367 16.0446 8.30739 15.9997 8.33079C15.9548 8.35419 15.919 8.39536 15.9004 8.44524C15.8817 8.49512 15.8817 8.54963 15.9002 8.59677C15.9188 8.64391 15.9544 8.67982 15.9993 8.6966M16.0255 8.62675C16.0518 8.6366 16.0818 8.6336 16.1087 8.6184C16.1356 8.6032 16.1573 8.57705 16.1691 8.5457C16.1808 8.51434 16.1816 8.48036 16.1712 8.45122C16.1608 8.42208 16.1402 8.40017 16.1139 8.39031C16.0875 8.38046 16.0575 8.38346 16.0306 8.39866C16.0037 8.41386 15.982 8.44001 15.9702 8.47136C15.9585 8.50271 15.9577 8.5367 15.9681 8.56584C15.9785 8.59498 15.9991 8.61689 16.0255 8.62675" fill="#009B3A"/>
<mask id="mask1_4817_2" style="mask-type:luminance" maskUnits="userSpaceOnUse" x="16" y="8" width="1" height="1">
<path d="M16.3047 8.8156L16.4648 8.44733L16.7963 8.59145L16.6362 8.95973L16.3047 8.8156ZM16.578 8.64039L16.5505 8.70353L16.7162 8.77559L16.7437 8.71246L16.578 8.64039Z" fill="white"/>
</mask>
<g mask="url(#mask1_4817_2)">
<path fill-rule="evenodd" clip-rule="evenodd" d="M16.4704 8.88765C16.5144 8.90676 16.565 8.90569 16.6111 8.88467C16.6572 8.86365 16.695 8.82441 16.7162 8.77558C16.7375 8.72674 16.7404 8.67231 16.7243 8.62427C16.7082 8.57622 16.6745 8.53849 16.6306 8.51938C16.5866 8.50027 16.536 8.50134 16.4899 8.52236C16.4438 8.54338 16.406 8.58263 16.3848 8.63146C16.3635 8.6803 16.3606 8.73472 16.3767 8.78277C16.3928 8.83081 16.4265 8.86854 16.4704 8.88765M16.5002 8.81926C16.526 8.83048 16.556 8.82905 16.5837 8.81528C16.6114 8.80151 16.6345 8.77653 16.6478 8.74584C16.6612 8.71514 16.6637 8.68124 16.6549 8.6516C16.6461 8.62196 16.6266 8.599 16.6008 8.58778C16.575 8.57655 16.545 8.57798 16.5173 8.59175C16.4896 8.60552 16.4665 8.6305 16.4532 8.6612C16.4398 8.6919 16.4373 8.72579 16.4461 8.75544C16.4549 8.78508 16.4744 8.80804 16.5002 8.81926" fill="#009B3A"/>
</g>
<path d="M16.5762 8.71494L16.7156 8.77556L16.6927 8.82816L16.5533 8.76755L16.5762 8.71494Z" fill="#009B3A"/>
<path d="M16.6641 8.75269L16.7167 8.77556L16.6366 8.9597L16.584 8.93682L16.6641 8.75269Z" fill="#009B3A"/>
<path fill-rule="evenodd" clip-rule="evenodd" d="M16.772 9.02244L16.8387 9.05572L16.9053 8.92223L17.049 8.9939C17.079 9.00884 17.1137 9.01126 17.1454 9.00064C17.1771 8.99002 17.2034 8.96722 17.2183 8.93727C17.2332 8.90731 17.2357 8.87265 17.225 8.84091C17.2144 8.80916 17.1916 8.78294 17.1617 8.768L16.9563 8.66562L16.772 9.02244ZM16.9386 8.85549L17.0772 8.9246C17.0894 8.93071 17.1036 8.9317 17.1166 8.92736C17.1296 8.92301 17.1403 8.91369 17.1464 8.90143C17.1525 8.88918 17.1535 8.875 17.1492 8.86201C17.1448 8.84903 17.1355 8.8383 17.1233 8.83219L16.9846 8.76307L16.9386 8.85549Z" fill="#009B3A"/>
<path d="M17.077 9.17472C17.1026 9.12338 17.1589 9.01043 17.0819 8.97204L16.9844 8.9234C17.0973 8.97972 17.041 9.09266 17.0154 9.144" fill="#009B3A"/>
<path d="M17.228 9.25341L17.5426 9.43138L17.5793 9.36647L17.3247 9.2224L17.3755 9.13253L17.5752 9.24553L17.6091 9.18561L17.4094 9.07261L17.449 9.00271L17.6886 9.13831L17.7254 9.0734L17.4258 8.9039L17.228 9.25341Z" fill="#009B3A"/>
<path d="M17.813 9.45001C17.7914 9.48388 17.8133 9.52162 17.8617 9.55245C17.9101 9.58327 17.943 9.58216 17.9569 9.56041C18.0008 9.49147 17.7469 9.39091 17.8252 9.27072C17.8927 9.16747 18.0081 9.24783 18.0517 9.27557C18.0952 9.30331 18.1651 9.37506 18.1108 9.45775L18.037 9.41075C18.0601 9.37446 18.0347 9.33958 17.996 9.31492C17.9585 9.29103 17.928 9.28012 17.9057 9.3152C17.8683 9.37128 18.1171 9.47712 18.0408 9.59686C17.9846 9.68516 17.8867 9.64662 17.8214 9.605C17.7657 9.56956 17.6826 9.48598 17.7368 9.40147L17.813 9.45001Z" fill="#009B3A"/>
<path d="M18.2437 9.73487C18.2204 9.76757 18.2403 9.8064 18.287 9.83971C18.3337 9.87303 18.3666 9.87364 18.3817 9.85266C18.4291 9.7861 18.1808 9.67239 18.2653 9.55647C18.3381 9.45689 18.4491 9.54317 18.4912 9.57316C18.5332 9.60314 18.5993 9.67845 18.5407 9.75819L18.4694 9.70738C18.4944 9.67235 18.4709 9.63619 18.4335 9.60954C18.3973 9.58372 18.3675 9.57124 18.3433 9.6051C18.303 9.65914 18.546 9.77786 18.4636 9.89345C18.4028 9.97868 18.307 9.93507 18.244 9.89009C18.1903 9.85178 18.1116 9.76397 18.1701 9.6824L18.2437 9.73487Z" fill="#009B3A"/>
<path fill-rule="evenodd" clip-rule="evenodd" d="M18.6512 10.1969C18.6887 10.2267 18.7379 10.2388 18.7878 10.2304C18.8378 10.2221 18.8845 10.1939 18.9176 10.1523C18.9508 10.1106 18.9677 10.0588 18.9646 10.0082C18.9615 9.95764 18.9387 9.91247 18.9012 9.88264C18.8637 9.8528 18.8145 9.84074 18.7646 9.84911C18.7146 9.85749 18.6679 9.8856 18.6348 9.92728C18.6016 9.96896 18.5847 10.0208 18.5878 10.0713C18.5909 10.1219 18.6137 10.1671 18.6512 10.1969M18.6976 10.1385C18.7197 10.1561 18.7491 10.1625 18.7794 10.1563C18.8097 10.1502 18.8384 10.132 18.8593 10.1058C18.8801 10.0796 18.8913 10.0476 18.8905 10.0166C18.8896 9.98573 18.8768 9.95852 18.8548 9.941C18.8327 9.92348 18.8033 9.91708 18.773 9.92321C18.7427 9.92935 18.714 9.94751 18.6931 9.97371C18.6723 9.9999 18.6611 10.032 18.6619 10.0629C18.6628 10.0938 18.6756 10.121 18.6976 10.1385" fill="#009B3A"/>
<path d="M11.5566 8.44708L11.5008 8.61895L11.5867 8.64687" fill="white"/>
<path d="M11.5566 8.44708L11.6125 8.61895L11.5266 8.64687" fill="white"/>
<path d="M11.7285 8.57193H11.5478V8.66228" fill="white"/>
<path d="M11.7285 8.57193L11.5823 8.67815L11.5292 8.60505" fill="white"/>
<path d="M11.3848 8.57196L11.531 8.67818L11.5841 8.60508" fill="white"/>
<path d="M11.3848 8.57196H11.5655V8.66231" fill="white"/>
<path d="M11.6621 8.77399L11.6063 8.60212L11.5203 8.63004" fill="white"/>
<path d="M11.6621 8.77399L11.5159 8.66777L11.569 8.59467" fill="white"/>
<path d="M11.4492 8.77399L11.5954 8.66777L11.5423 8.59467" fill="white"/>
<path d="M11.4492 8.77399L11.5051 8.60212L11.591 8.63004" fill="white"/>
<path d="M11.9297 10.2198L11.8738 10.3916L11.9598 10.4195" fill="white"/>
<path d="M11.9297 10.2198L11.9855 10.3916L11.8996 10.4195" fill="white"/>
<path d="M12.1016 10.3446H11.9209V10.435" fill="white"/>
<path d="M12.1016 10.3446L11.9554 10.4508L11.9023 10.3777" fill="white"/>
<path d="M11.7578 10.3446L11.904 10.4509L11.9571 10.3778" fill="white"/>
<path d="M11.7578 10.3446H11.9385V10.435" fill="white"/>
<path d="M12.0352 10.5467L11.9793 10.3748L11.8934 10.4027" fill="white"/>
<path d="M12.0352 10.5467L11.889 10.4405L11.9421 10.3674" fill="white"/>
<path d="M11.8242 10.5467L11.9704 10.4404L11.9173 10.3673" fill="white"/>
<path d="M11.8242 10.5467L11.8801 10.3748L11.966 10.4027" fill="white"/>
<path d="M11.4141 10.6285L11.3675 10.7718L11.4391 10.795" fill="white"/>
<path d="M11.4141 10.6285L11.4606 10.7718L11.389 10.795" fill="white"/>
<path d="M11.5547 10.7326H11.4041V10.8079" fill="white"/>
<path d="M11.5547 10.7326L11.4329 10.8211L11.3886 10.7602" fill="white"/>
<path d="M11.2676 10.7325L11.3894 10.8211L11.4337 10.7601" fill="white"/>
<path d="M11.2676 10.7325H11.4182V10.8078" fill="white"/>
<path d="M11.5 10.9009L11.4535 10.7577L11.3819 10.781" fill="white"/>
<path d="M11.5 10.9009L11.3782 10.8124L11.4224 10.7515" fill="white"/>
<path d="M11.3223 10.901L11.4441 10.8125L11.3998 10.7515" fill="white"/>
<path d="M11.3223 10.901L11.3688 10.7578L11.4404 10.781" fill="white"/>
<path d="M12.3457 10.0563L12.3191 10.1381L12.36 10.1514" fill="white"/>
<path d="M12.3457 10.0563L12.3723 10.1381L12.3314 10.1514" fill="white"/>
<path d="M12.4238 10.1157H12.3378V10.1587" fill="white"/>
<path d="M12.4238 10.1157L12.3542 10.1663L12.3289 10.1315" fill="white"/>
<path d="M12.2637 10.1158L12.3333 10.1663L12.3586 10.1315" fill="white"/>
<path d="M12.2637 10.1158H12.3497V10.1588" fill="white"/>
<path d="M12.3945 10.2119L12.3679 10.1301L12.327 10.1434" fill="white"/>
<path d="M12.3945 10.2119L12.3249 10.1614L12.3502 10.1266" fill="white"/>
<path d="M12.293 10.2119L12.3626 10.1614L12.3373 10.1266" fill="white"/>
<path d="M12.293 10.2119L12.3196 10.1301L12.3605 10.1434" fill="white"/>
<path d="M12.8086 10.6686L12.7621 10.8119L12.8337 10.8351" fill="white"/>
<path d="M12.8086 10.6686L12.8551 10.8119L12.7835 10.8351" fill="white"/>
<path d="M12.9492 10.7727H12.7986V10.848" fill="white"/>
<path d="M12.9492 10.7727L12.8274 10.8613L12.7831 10.8003" fill="white"/>
<path d="M12.6621 10.7727L12.7839 10.8612L12.8282 10.8003" fill="white"/>
<path d="M12.6621 10.7727H12.8127V10.848" fill="white"/>
<path d="M12.8945 10.941L12.848 10.7978L12.7764 10.8211" fill="white"/>
<path d="M12.8945 10.941L12.7727 10.8525L12.817 10.7916" fill="white"/>
<path d="M12.7168 10.9411L12.8386 10.8526L12.7944 10.7916" fill="white"/>
<path d="M12.7168 10.9411L12.7633 10.7979L12.8349 10.8211" fill="white"/>
<path d="M12.6797 11.1175L12.6425 11.2321L12.6997 11.2507" fill="white"/>
<path d="M12.6797 11.1175L12.7169 11.2321L12.6596 11.2507" fill="white"/>
<path d="M12.793 11.2007H12.6725V11.261" fill="white"/>
<path d="M12.793 11.2007L12.6955 11.2716L12.6601 11.2228" fill="white"/>
<path d="M12.5625 11.2008L12.66 11.2716L12.6954 11.2229" fill="white"/>
<path d="M12.5625 11.2008H12.683V11.261" fill="white"/>
<path d="M12.748 11.3355L12.7108 11.2209L12.6535 11.2395" fill="white"/>
<path d="M12.748 11.3355L12.6506 11.2647L12.686 11.2159" fill="white"/>
<path d="M12.6074 11.3355L12.7049 11.2647L12.6695 11.2159" fill="white"/>
<path d="M12.6074 11.3355L12.6446 11.2209L12.7019 11.2395" fill="white"/>
<path d="M16.3066 7.89636L16.2508 8.06823L16.3367 8.09615" fill="white"/>
<path d="M16.3066 7.89636L16.3625 8.06823L16.2766 8.09615" fill="white"/>
<path d="M16.4785 8.02121H16.2978V8.11156" fill="white"/>
<path d="M16.4785 8.02121L16.3323 8.12743L16.2792 8.05433" fill="white"/>
<path d="M16.1348 8.02124L16.281 8.12746L16.3341 8.05436" fill="white"/>
<path d="M16.1348 8.02124H16.3155V8.11159" fill="white"/>
<path d="M16.4141 8.2233L16.3582 8.05143L16.2723 8.07935" fill="white"/>
<path d="M16.4141 8.2233L16.2679 8.11708L16.321 8.04398" fill="white"/>
<path d="M16.1992 8.22327L16.3454 8.11705L16.2923 8.04395" fill="white"/>
<path d="M16.1992 8.22327L16.2551 8.0514L16.341 8.07932" fill="white"/>
<path d="M17.9551 10.6844L17.8992 10.8563L17.9852 10.8842" fill="white"/>
<path d="M17.9551 10.6844L18.0109 10.8563L17.925 10.8842" fill="white"/>
<path d="M18.127 10.8093H17.9462V10.8997" fill="white"/>
<path d="M18.127 10.8093L17.9808 10.9155L17.9276 10.8424" fill="white"/>
<path d="M17.7832 10.8093L17.9294 10.9155L17.9825 10.8424" fill="white"/>
<path d="M17.7832 10.8093H17.9639V10.8997" fill="white"/>
<path d="M18.0605 11.0114L18.0047 10.8395L17.9188 10.8674" fill="white"/>
<path d="M18.0605 11.0114L17.9144 10.9052L17.9675 10.8321" fill="white"/>
<path d="M17.8477 11.0114L17.9939 10.9051L17.9407 10.832" fill="white"/>
<path d="M17.8477 11.0114L17.9035 10.8395L17.9894 10.8674" fill="white"/>
<path d="M18.5371 10.7848L18.4999 10.8994L18.5572 10.918" fill="white"/>
<path d="M18.5371 10.7848L18.5743 10.8994L18.517 10.918" fill="white"/>
<path d="M18.6504 10.868H18.5299V10.9283" fill="white"/>
<path d="M18.6504 10.868L18.5529 10.9389L18.5175 10.8901" fill="white"/>
<path d="M18.4199 10.8681L18.5174 10.9389L18.5528 10.8902" fill="white"/>
<path d="M18.4199 10.8681H18.5404V10.9283" fill="white"/>
<path d="M18.6055 11.0027L18.5682 10.8882L18.511 10.9068" fill="white"/>
<path d="M18.6055 11.0027L18.508 10.9319L18.5434 10.8832" fill="white"/>
<path d="M18.4648 11.0028L18.5623 10.932L18.5269 10.8832" fill="white"/>
<path d="M18.4648 11.0028L18.5021 10.8882L18.5594 10.9068" fill="white"/>
<path d="M18.1289 11.0874L18.0824 11.2307L18.154 11.2539" fill="white"/>
<path d="M18.1289 11.0874L18.1754 11.2307L18.1038 11.2539" fill="white"/>
<path d="M18.2715 11.1915H18.1209V11.2668" fill="white"/>
<path d="M18.2715 11.1915L18.1497 11.28L18.1054 11.2191" fill="white"/>
<path d="M17.9844 11.1915L18.1062 11.28L18.1505 11.2191" fill="white"/>
<path d="M17.9844 11.1915H18.135V11.2668" fill="white"/>
<path d="M18.2168 11.3598L18.1703 11.2166L18.0987 11.2399" fill="white"/>
<path d="M18.2168 11.3598L18.095 11.2713L18.1392 11.2104" fill="white"/>
<path d="M18.0391 11.3599L18.1609 11.2713L18.1166 11.2104" fill="white"/>
<path d="M18.0391 11.3599L18.0856 11.2166L18.1572 11.2399" fill="white"/>
<path d="M17.1113 11.9709L17.0648 12.1141L17.1364 12.1374" fill="white"/>
<path d="M17.1113 11.9709L17.1579 12.1141L17.0863 12.1374" fill="white"/>
<path d="M17.252 12.075H17.1014V12.1502" fill="white"/>
<path d="M17.252 12.075L17.1301 12.1635L17.0859 12.1026" fill="white"/>
<path d="M16.9648 12.0749L17.0867 12.1634L17.1309 12.1025" fill="white"/>
<path d="M16.9648 12.0749H17.1154V12.1502" fill="white"/>
<path d="M17.1973 12.2433L17.1507 12.1001L17.0791 12.1233" fill="white"/>
<path d="M17.1973 12.2433L17.0754 12.1548L17.1197 12.0939" fill="white"/>
<path d="M17.0195 12.2433L17.1414 12.1548L17.0971 12.0939" fill="white"/>
<path d="M17.0195 12.2433L17.0661 12.1001L17.1377 12.1234" fill="white"/>
<path d="M17.1074 12.4255L17.0702 12.5401L17.1275 12.5587" fill="white"/>
<path d="M17.1074 12.4255L17.1446 12.5401L17.0874 12.5587" fill="white"/>
<path d="M17.2207 12.5087H17.1002V12.569" fill="white"/>
<path d="M17.2207 12.5087L17.1232 12.5795L17.0878 12.5308" fill="white"/>
<path d="M16.9922 12.5088L17.0897 12.5796L17.1251 12.5308" fill="white"/>
<path d="M16.9922 12.5088H17.1127V12.569" fill="white"/>
<path d="M17.1758 12.6434L17.1386 12.5289L17.0813 12.5475" fill="white"/>
<path d="M17.1758 12.6434L17.0783 12.5726L17.1137 12.5239" fill="white"/>
<path d="M17.0352 12.6435L17.1326 12.5727L17.0972 12.5239" fill="white"/>
<path d="M17.0352 12.6435L17.0724 12.5289L17.1297 12.5475" fill="white"/>
<path d="M17.5293 11.6683L17.4921 11.7829L17.5494 11.8015" fill="white"/>
<path d="M17.5293 11.6683L17.5665 11.7829L17.5092 11.8015" fill="white"/>
<path d="M17.6426 11.7516H17.5221V11.8118" fill="white"/>
<path d="M17.6426 11.7516L17.5451 11.8224L17.5097 11.7736" fill="white"/>
<path d="M17.4141 11.7516L17.5115 11.8224L17.5469 11.7737" fill="white"/>
<path d="M17.4141 11.7516H17.5345V11.8118" fill="white"/>
<path d="M17.5977 11.8863L17.5604 11.7717L17.5031 11.7903" fill="white"/>
<path d="M17.5977 11.8863L17.5002 11.8154L17.5356 11.7667" fill="white"/>
<path d="M17.457 11.8863L17.5545 11.8154L17.5191 11.7667" fill="white"/>
<path d="M17.457 11.8863L17.4943 11.7717L17.5515 11.7903" fill="white"/>
<path d="M17.8691 11.4259L17.8226 11.5691L17.8942 11.5924" fill="white"/>
<path d="M17.8691 11.4259L17.9157 11.5691L17.8441 11.5924" fill="white"/>
<path d="M18.0098 11.53H17.8592V11.6053" fill="white"/>
<path d="M18.0098 11.53L17.8879 11.6185L17.8437 11.5576" fill="white"/>
<path d="M17.7227 11.5299L17.8445 11.6185L17.8887 11.5575" fill="white"/>
<path d="M17.7227 11.5299H17.8732V11.6052" fill="white"/>
<path d="M17.9551 11.6983L17.9085 11.5551L17.8369 11.5784" fill="white"/>
<path d="M17.9551 11.6983L17.8332 11.6098L17.8775 11.5489" fill="white"/>
<path d="M17.7773 11.6983L17.8992 11.6098L17.8549 11.5489" fill="white"/>
<path d="M17.7773 11.6983L17.8239 11.5551L17.8955 11.5784" fill="white"/>
<path d="M17.0938 11.588L17.0565 11.7026L17.1138 11.7212" fill="white"/>
<path d="M17.0938 11.588L17.131 11.7026L17.0737 11.7212" fill="white"/>
<path d="M17.207 11.6712H17.0866V11.7314" fill="white"/>
<path d="M17.207 11.6712L17.1096 11.742L17.0742 11.6933" fill="white"/>
<path d="M16.9766 11.6713L17.074 11.7421L17.1094 11.6933" fill="white"/>
<path d="M16.9766 11.6713H17.097V11.7315" fill="white"/>
<path d="M17.1602 11.8059L17.1229 11.6913L17.0656 11.7099" fill="white"/>
<path d="M17.1602 11.8059L17.0627 11.7351L17.0981 11.6864" fill="white"/>
<path d="M17.0215 11.8059L17.1189 11.7351L17.0835 11.6864" fill="white"/>
<path d="M17.0215 11.8059L17.0587 11.6913L17.116 11.7099" fill="white"/>
<path d="M13.3945 9.40659L13.348 9.54981L13.4196 9.57307" fill="white"/>
<path d="M13.3945 9.40659L13.4411 9.54981L13.3695 9.57307" fill="white"/>
<path d="M13.5371 9.51068H13.3865V9.58598" fill="white"/>
<path d="M13.5371 9.51068L13.4153 9.5992L13.371 9.53828" fill="white"/>
<path d="M13.25 9.51062L13.3718 9.59914L13.4161 9.53822" fill="white"/>
<path d="M13.25 9.51062H13.4006V9.58592" fill="white"/>
<path d="M13.4824 9.67899L13.4359 9.53577L13.3643 9.55903" fill="white"/>
<path d="M13.4824 9.67899L13.3606 9.59047L13.4048 9.52956" fill="white"/>
<path d="M13.3047 9.67902L13.4265 9.5905L13.3823 9.52959" fill="white"/>
<path d="M13.3047 9.67902L13.3512 9.5358L13.4228 9.55906" fill="white"/>
<path d="M16.1465 9.05234L16.1093 9.16691L16.1665 9.18553" fill="white"/>
<path d="M16.1465 9.05234L16.1837 9.16691L16.1264 9.18553" fill="white"/>
<path d="M16.2598 9.13556H16.1393V9.1958" fill="white"/>
<path d="M16.2598 9.13556L16.1623 9.20637L16.1269 9.15764" fill="white"/>
<path d="M16.0293 9.13559L16.1268 9.2064L16.1622 9.15767" fill="white"/>
<path d="M16.0293 9.13559H16.1498V9.19583" fill="white"/>
<path d="M16.2148 9.27029L16.1776 9.15572L16.1203 9.17433" fill="white"/>
<path d="M16.2148 9.27029L16.1174 9.19948L16.1528 9.15075" fill="white"/>
<path d="M16.0742 9.27029L16.1717 9.19948L16.1363 9.15075" fill="white"/>
<path d="M16.0742 9.27029L16.1114 9.15572L16.1687 9.17433" fill="white"/>
<path d="M15 11.0975L14.9442 11.2693L15.0301 11.2973" fill="white"/>
<path d="M15 11.0975L15.0558 11.2693L14.9699 11.2973" fill="white"/>
<path d="M15.1719 11.2223H14.9912V11.3127" fill="white"/>
<path d="M15.1719 11.2223L15.0257 11.3285L14.9726 11.2554" fill="white"/>
<path d="M14.8281 11.2224L14.9743 11.3286L15.0274 11.2555" fill="white"/>
<path d="M14.8281 11.2224H15.0088V11.3127" fill="white"/>
<path d="M15.1055 11.4244L15.0496 11.2525L14.9637 11.2804" fill="white"/>
<path d="M15.1055 11.4244L14.9593 11.3182L15.0124 11.2451" fill="white"/>
<path d="M14.8906 11.4243L15.0368 11.3181L14.9837 11.245" fill="white"/>
<path d="M14.8906 11.4243L14.9465 11.2525L15.0324 11.2804" fill="white"/>
<path d="M15.4863 10.29L15.4398 10.4332L15.5114 10.4565" fill="white"/>
<path d="M15.4863 10.29L15.5329 10.4332L15.4613 10.4565" fill="white"/>
<path d="M15.627 10.3941H15.4764V10.4694" fill="white"/>
<path d="M15.627 10.3941L15.5051 10.4826L15.4609 10.4217" fill="white"/>
<path d="M15.3398 10.394L15.4617 10.4826L15.5059 10.4216" fill="white"/>
<path d="M15.3398 10.394H15.4904V10.4693" fill="white"/>
<path d="M15.5723 10.5624L15.5257 10.4192L15.4541 10.4425" fill="white"/>
<path d="M15.5723 10.5624L15.4504 10.4739L15.4947 10.413" fill="white"/>
<path d="M15.3945 10.5624L15.5164 10.4739L15.4721 10.413" fill="white"/>
<path d="M15.3945 10.5624L15.4411 10.4192L15.5127 10.4425" fill="white"/>
<path d="M15 9.91138L14.9535 10.0546L15.0251 10.0779" fill="white"/>
<path d="M15 9.91138L15.0465 10.0546L14.9749 10.0779" fill="white"/>
<path d="M15.1406 10.0155H14.99V10.0908" fill="white"/>
<path d="M15.1406 10.0155L15.0188 10.104L14.9745 10.0431" fill="white"/>
<path d="M14.8535 10.0154L14.9753 10.1039L15.0196 10.043" fill="white"/>
<path d="M14.8535 10.0154H15.0041V10.0907" fill="white"/>
<path d="M15.0859 10.1838L15.0394 10.0406L14.9678 10.0638" fill="white"/>
<path d="M15.0859 10.1838L14.9641 10.0953L15.0084 10.0343" fill="white"/>
<path d="M14.9082 10.1838L15.03 10.0953L14.9858 10.0344" fill="white"/>
<path d="M14.9082 10.1838L14.9547 10.0406L15.0263 10.0639" fill="white"/>
<path d="M14.5742 10.3201L14.537 10.4347L14.5943 10.4533" fill="white"/>
<path d="M14.5742 10.3201L14.6114 10.4347L14.5542 10.4533" fill="white"/>
<path d="M14.6875 10.4034H14.567V10.4636" fill="white"/>
<path d="M14.6875 10.4034L14.59 10.4742L14.5546 10.4254" fill="white"/>
<path d="M14.459 10.4034L14.5564 10.4742L14.5919 10.4255" fill="white"/>
<path d="M14.459 10.4034H14.5795V10.4636" fill="white"/>
<path d="M14.6426 10.5381L14.6054 10.4235L14.5481 10.4421" fill="white"/>
<path d="M14.6426 10.5381L14.5451 10.4672L14.5805 10.4185" fill="white"/>
<path d="M14.5039 10.5381L14.6014 10.4673L14.566 10.4185" fill="white"/>
<path d="M14.5039 10.5381L14.5411 10.4235L14.5984 10.4421" fill="white"/>
<path d="M14.7852 10.6471L14.7586 10.729L14.7995 10.7423" fill="white"/>
<path d="M14.7852 10.6471L14.8117 10.729L14.7708 10.7423" fill="white"/>
<path d="M14.8652 10.7066H14.7792V10.7496" fill="white"/>
<path d="M14.8652 10.7066L14.7956 10.7572L14.7703 10.7223" fill="white"/>
<path d="M14.7012 10.7066L14.7708 10.7572L14.7961 10.7224" fill="white"/>
<path d="M14.7012 10.7066H14.7872V10.7496" fill="white"/>
<path d="M14.8359 10.8028L14.8093 10.721L14.7684 10.7343" fill="white"/>
<path d="M14.8359 10.8028L14.7663 10.7522L14.7916 10.7174" fill="white"/>
<path d="M14.7344 10.8028L14.804 10.7522L14.7787 10.7174" fill="white"/>
<path d="M14.7344 10.8028L14.761 10.721L14.8019 10.7343" fill="white"/>
<path d="M16.2637 12.0742L16.2171 12.2174L16.2887 12.2406" fill="white"/>
<path d="M16.2637 12.0742L16.3102 12.2174L16.2386 12.2406" fill="white"/>
<path d="M16.4062 12.1782H16.2557V12.2535" fill="white"/>
<path d="M16.4062 12.1782L16.2844 12.2667L16.2402 12.2058" fill="white"/>
<path d="M16.1191 12.1782L16.241 12.2667L16.2852 12.2058" fill="white"/>
<path d="M16.1191 12.1782H16.2697V12.2535" fill="white"/>
<path d="M16.3516 12.3466L16.305 12.2033L16.2334 12.2266" fill="white"/>
<path d="M16.3516 12.3466L16.2297 12.258L16.274 12.1971" fill="white"/>
<path d="M16.1719 12.3466L16.2937 12.2581L16.2494 12.1972" fill="white"/>
<path d="M16.1719 12.3466L16.2184 12.2034L16.29 12.2266" fill="white"/>
<path d="M16.623 11.7314L16.5858 11.8459L16.6431 11.8645" fill="white"/>
<path d="M16.623 11.7314L16.6603 11.8459L16.603 11.8645" fill="white"/>
<path d="M16.7363 11.8146H16.6159V11.8748" fill="white"/>
<path d="M16.7363 11.8146L16.6389 11.8854L16.6035 11.8367" fill="white"/>
<path d="M16.5059 11.8146L16.6033 11.8854L16.6387 11.8367" fill="white"/>
<path d="M16.5059 11.8146H16.6263V11.8748" fill="white"/>
<path d="M16.6895 11.9493L16.6522 11.8347L16.5949 11.8533" fill="white"/>
<path d="M16.6895 11.9493L16.592 11.8785L16.6274 11.8297" fill="white"/>
<path d="M16.5508 11.9493L16.6482 11.8785L16.6128 11.8297" fill="white"/>
<path d="M16.5508 11.9493L16.588 11.8347L16.6453 11.8533" fill="white"/>
<path d="M15.9277 11.6281L15.8905 11.7427L15.9478 11.7613" fill="white"/>
<path d="M15.9277 11.6281L15.965 11.7427L15.9077 11.7613" fill="white"/>
<path d="M16.041 11.7113H15.9205V11.7716" fill="white"/>
<path d="M16.041 11.7113L15.9436 11.7821L15.9081 11.7334" fill="white"/>
<path d="M15.8125 11.7114L15.91 11.7822L15.9454 11.7334" fill="white"/>
<path d="M15.8125 11.7114H15.933V11.7716" fill="white"/>
<path d="M15.9961 11.846L15.9589 11.7315L15.9016 11.7501" fill="white"/>
<path d="M15.9961 11.846L15.8986 11.7752L15.934 11.7265" fill="white"/>
<path d="M15.8574 11.8461L15.9549 11.7753L15.9195 11.7265" fill="white"/>
<path d="M15.8574 11.8461L15.8946 11.7315L15.9519 11.7501" fill="white"/>
<path d="M13.3086 11.4417L13.2528 11.6136L13.3387 11.6415" fill="white"/>
<path d="M13.3086 11.4417L13.3644 11.6136L13.2785 11.6415" fill="white"/>
<path d="M13.4805 11.5666H13.2998V11.6569" fill="white"/>
<path d="M13.4805 11.5666L13.3343 11.6728L13.2812 11.5997" fill="white"/>
<path d="M13.1367 11.5666L13.2829 11.6728L13.336 11.5997" fill="white"/>
<path d="M13.1367 11.5666H13.3174V11.6569" fill="white"/>
<path d="M13.4141 11.7686L13.3582 11.5968L13.2723 11.6247" fill="white"/>
<path d="M13.4141 11.7686L13.2679 11.6624L13.321 11.5893" fill="white"/>
<path d="M13.2012 11.7686L13.3474 11.6624L13.2943 11.5893" fill="white"/>
<path d="M13.2012 11.7686L13.257 11.5968L13.3429 11.6247" fill="white"/>
<path d="M15 12.6235L14.9814 12.6808L15.01 12.6901" fill="white"/>
<path d="M15 12.6235L15.0186 12.6808L14.99 12.6901" fill="white"/>
<path d="M15.0586 12.6651H14.9984V12.6952" fill="white"/>
<path d="M15.0586 12.6651L15.0099 12.7005L14.9922 12.6761" fill="white"/>
<path d="M14.9453 12.6651L14.994 12.7005L15.0117 12.6761" fill="white"/>
<path d="M14.9453 12.6651H15.0055V12.6952" fill="white"/>
<path d="M15.0352 12.7325L15.0165 12.6752L14.9879 12.6845" fill="white"/>
<path d="M15.0352 12.7325L14.9864 12.697L15.0041 12.6727" fill="white"/>
<path d="M14.9629 12.7324L15.0116 12.697L14.9939 12.6726" fill="white"/>
<path d="M14.9629 12.7324L14.9815 12.6751L15.0101 12.6844" fill="white"/>
</g>
<defs>
<clipPath id="clip0_4817_2">
<rect width="30" height="18" fill="white"/>
</clipPath>
</defs>
</svg>
